<?xml version="1.0" encoding="utf-8"?>
<!-- Generator: Adobe Illustrator 27.5.0, SVG Export Plug-In . SVG Version: 6.00 Build 0)  -->
<svg version="1.1" xmlns="http://www.w3.org/2000/svg" xmlns:xlink="http://www.w3.org/1999/xlink" x="0px" y="0px"
	 viewBox="0 0 3710 3710" style="enable-background:new 0 0 3710 3710;" xml:space="preserve">
<g id="Background">
	<g>
		<g>
			<rect style="fill:#FFFFFF;" width="3710" height="3710"/>
		</g>
	</g>
</g>
<g id="Illustration">
	<g>
		<linearGradient id="SVGID_1_" gradientUnits="userSpaceOnUse" x1="3491.2471" y1="3652.4834" x2="1540.4034" y2="1575.7794">
			<stop  offset="0" style="stop-color:#DAE3FE"/>
			<stop  offset="1" style="stop-color:#E9EFFD"/>
		</linearGradient>
		<path style="fill:url(#SVGID_1_);" d="M2905.508,2819.318c-72.017,74.233-136.455,117.869-185.792,150.812
			c-481.167,321.28-1031.194,228.679-1201.249,197.029c-274.362-51.065-505.962-87.089-704.947-266.864
			c-452.155-408.504-430.163-1260.675-84.661-1788.557c40.966-62.592,385.945-573.957,937.162-646.013
			c13.482-1.762,23.541-2.766,32.352-3.699c85.272-9.028,613.686-56.678,1044.555,304.304
			c61.677,51.673,160.933,144.877,252.975,287.029C3332.451,1573.131,3333.517,2378.143,2905.508,2819.318z"/>
		<g>
			<path style="fill:#91B3FA;" d="M2588.024,3084.992H924.7c-49.192,0-89.069-39.878-89.069-89.069V564.664
				c0-49.192,39.878-89.069,89.069-89.069h1663.324c49.192,0,89.069,39.878,89.069,89.069v2431.259
				C2677.093,3045.115,2637.215,3084.992,2588.024,3084.992z"/>
			<path style="fill:#BDD0FB;" d="M2555.821,3036.948H956.903c-49.192,0-89.069-39.878-89.069-89.07V607.886
				c0-49.192,39.878-89.069,89.069-89.069h1598.917c49.192,0,89.069,39.878,89.069,89.069v2339.993
				C2644.89,2997.071,2605.012,3036.948,2555.821,3036.948z"/>
		</g>
		<g>
			
				<linearGradient id="SVGID_00000029738798837193763870000009357138125445311385_" gradientUnits="userSpaceOnUse" x1="1298.9304" y1="2922.782" x2="4126.9863" y2="-1258.4037">
				<stop  offset="0" style="stop-color:#4042E2"/>
				<stop  offset="1" style="stop-color:#4F52FF"/>
			</linearGradient>
			<path style="fill:url(#SVGID_00000029738798837193763870000009357138125445311385_);" d="M2975.597,3116.624H1155.623
				c-14.763,0-26.731-11.968-26.731-26.731V488.651c0-14.763,11.968-26.731,26.731-26.731h1819.974
				c14.763,0,26.731,11.968,26.731,26.731v2601.242C3002.328,3104.656,2990.36,3116.624,2975.597,3116.624z"/>
			<path style="fill:#91B3FA;" d="M2880.496,3067.746H1250.724c-49.192,0-89.069-39.878-89.069-89.069V594.961
				c0-49.192,39.878-89.069,89.069-89.069h1629.772c49.192,0,89.069,39.878,89.069,89.069v2383.715
				C2969.565,3027.868,2929.688,3067.746,2880.496,3067.746z"/>
			
				<linearGradient id="SVGID_00000049920172782591906980000008615230680707735705_" gradientUnits="userSpaceOnUse" x1="1356.0615" y1="2934.0474" x2="2424.4473" y2="2934.0474">
				<stop  offset="0" style="stop-color:#DAE3FE"/>
				<stop  offset="1" style="stop-color:#E9EFFD"/>
			</linearGradient>
			<path style="fill:url(#SVGID_00000049920172782591906980000008615230680707735705_);" d="M2412.447,2978.992H1368.062
				c-6.6,0-12-5.4-12-12v-65.889c0-6.6,5.4-12,12-12h1044.386c6.6,0,12,5.4,12,12v65.889
				C2424.447,2973.592,2419.047,2978.992,2412.447,2978.992z"/>
			
				<linearGradient id="SVGID_00000092436004488575943980000013666522316274145706_" gradientUnits="userSpaceOnUse" x1="1356.0615" y1="2772.7214" x2="2424.4473" y2="2772.7214">
				<stop  offset="0" style="stop-color:#DAE3FE"/>
				<stop  offset="1" style="stop-color:#E9EFFD"/>
			</linearGradient>
			<path style="fill:url(#SVGID_00000092436004488575943980000013666522316274145706_);" d="M2412.447,2817.666H1368.062
				c-6.6,0-12-5.4-12-12v-65.889c0-6.6,5.4-12,12-12h1044.386c6.6,0,12,5.4,12,12v65.889
				C2424.447,2812.266,2419.047,2817.666,2412.447,2817.666z"/>
			
				<linearGradient id="SVGID_00000062882680677742431020000005051277578299909273_" gradientUnits="userSpaceOnUse" x1="1350.0295" y1="2619.2429" x2="2418.4153" y2="2619.2429">
				<stop  offset="0" style="stop-color:#DAE3FE"/>
				<stop  offset="1" style="stop-color:#E9EFFD"/>
			</linearGradient>
			<path style="fill:url(#SVGID_00000062882680677742431020000005051277578299909273_);" d="M2406.415,2664.188H1362.03
				c-6.6,0-12-5.4-12-12v-65.889c0-6.6,5.4-12,12-12h1044.386c6.6,0,12,5.4,12,12v65.889
				C2418.415,2658.788,2413.015,2664.188,2406.415,2664.188z"/>
			
				<linearGradient id="SVGID_00000010270000408835338040000005253716123493873292_" gradientUnits="userSpaceOnUse" x1="3156.936" y1="1534.4808" x2="2141.2917" y2="2586.7734">
				<stop  offset="0" style="stop-color:#FE7062"/>
				<stop  offset="1" style="stop-color:#FF928E"/>
			</linearGradient>
			<path style="fill:url(#SVGID_00000010270000408835338040000005253716123493873292_);" d="M2859.257,2530.231H1950.7
				c-12.303,0-22.37-10.066-22.37-22.369v-388.58c0-12.303,10.066-22.37,22.37-22.37h908.557c12.303,0,22.37,10.066,22.37,22.37
				v388.58C2881.627,2520.165,2871.56,2530.231,2859.257,2530.231z"/>
			<path style="opacity:0.63;fill:#FFFFFF;" d="M2799.539,2217.564h-786.183c-3.653,0-6.641-2.989-6.641-6.641v-30.975
				c0-3.653,2.989-6.641,6.641-6.641h786.183c3.653,0,6.641,2.989,6.641,6.641v30.975
				C2806.18,2214.576,2803.191,2217.564,2799.539,2217.564z"/>
			<path style="opacity:0.63;fill:#FFFFFF;" d="M2794.323,2326.323H2008.14c-3.653,0-6.641-2.989-6.641-6.641v-30.975
				c0-3.653,2.989-6.641,6.641-6.641h786.183c3.653,0,6.641,2.989,6.641,6.641v30.975
				C2800.964,2323.335,2797.976,2326.323,2794.323,2326.323z"/>
			<path style="opacity:0.63;fill:#FFFFFF;" d="M2798.819,2442.677h-786.184c-3.653,0-6.641-2.989-6.641-6.641v-30.975
				c0-3.653,2.989-6.641,6.641-6.641h786.184c3.653,0,6.641,2.989,6.641,6.641v30.975
				C2805.46,2439.688,2802.471,2442.677,2798.819,2442.677z"/>
			
				<linearGradient id="SVGID_00000016062949007502056750000011421289768576214914_" gradientUnits="userSpaceOnUse" x1="1248.624" y1="580.1815" x2="2048.0898" y2="580.1815">
				<stop  offset="0" style="stop-color:#DAE3FE"/>
				<stop  offset="1" style="stop-color:#E9EFFD"/>
			</linearGradient>
			<path style="fill:url(#SVGID_00000016062949007502056750000011421289768576214914_);" d="M2041.449,602.31h-786.183
				c-3.653,0-6.641-2.989-6.641-6.641v-30.975c0-3.653,2.989-6.641,6.641-6.641h786.183c3.653,0,6.641,2.988,6.641,6.641v30.975
				C2048.09,599.322,2045.101,602.31,2041.449,602.31z"/>
			
				<linearGradient id="SVGID_00000155141372266701218900000006072596570094924696_" gradientUnits="userSpaceOnUse" x1="1243.4083" y1="688.9407" x2="2042.874" y2="688.9407">
				<stop  offset="0" style="stop-color:#DAE3FE"/>
				<stop  offset="1" style="stop-color:#E9EFFD"/>
			</linearGradient>
			<path style="fill:url(#SVGID_00000155141372266701218900000006072596570094924696_);" d="M2036.233,711.07l-786.183,0
				c-3.653,0-6.641-2.989-6.641-6.641v-30.975c0-3.653,2.989-6.641,6.641-6.641h786.183c3.653,0,6.641,2.989,6.641,6.641v30.975
				C2042.874,708.081,2039.885,711.07,2036.233,711.07z"/>
			
				<linearGradient id="SVGID_00000049925522104964875430000007418556520673557640_" gradientUnits="userSpaceOnUse" x1="1247.9036" y1="805.294" x2="2047.3694" y2="805.294">
				<stop  offset="0" style="stop-color:#DAE3FE"/>
				<stop  offset="1" style="stop-color:#E9EFFD"/>
			</linearGradient>
			<path style="fill:url(#SVGID_00000049925522104964875430000007418556520673557640_);" d="M2040.728,827.423h-786.183
				c-3.653,0-6.641-2.988-6.641-6.641v-30.975c0-3.653,2.989-6.641,6.641-6.641h786.183c3.653,0,6.641,2.988,6.641,6.641v30.975
				C2047.369,824.434,2044.381,827.423,2040.728,827.423z"/>
		</g>
		<g>
			<g>
				
					<linearGradient id="SVGID_00000051379129141395164080000003716306544422234004_" gradientUnits="userSpaceOnUse" x1="1520.9124" y1="426.4623" x2="1934.9609" y2="2299.5439">
					<stop  offset="0" style="stop-color:#FE7062"/>
					<stop  offset="1" style="stop-color:#FF928E"/>
				</linearGradient>
				<path style="fill:url(#SVGID_00000051379129141395164080000003716306544422234004_);" d="M1790.888,1631.993
					c33.662-65.389,96.275-111.49,169.002-119.724l5.052-319.755c-208.977,0.223-393.602,130.693-477.743,324.099L1790.888,1631.993
					z"/>
				
					<linearGradient id="SVGID_00000040568901723977445130000008704526472012686015_" gradientUnits="userSpaceOnUse" x1="1731.6588" y1="2029.2936" x2="2477.1936" y2="2029.2936">
					<stop  offset="0" style="stop-color:#DAE3FE"/>
					<stop  offset="1" style="stop-color:#E9EFFD"/>
				</linearGradient>
				<path style="fill:url(#SVGID_00000040568901723977445130000008704526472012686015_);" d="M2193.753,1774.222
					c-17.103,104.987-103.12,187.487-208.553,191.067c-31.449,1.068-61.502-4.988-88.775-16.822l-164.766,283.445
					c76.602,38.413,163.103,57.216,253.542,51.419c262.761-16.84,469.092-236.666,491.993-501.239L2193.753,1774.222z"/>
				
					<linearGradient id="SVGID_00000039813959694928458550000004752690153981370531_" gradientUnits="userSpaceOnUse" x1="2269.26" y1="925.6508" x2="415.8964" y2="3488.8157">
					<stop  offset="0" style="stop-color:#FF928E"/>
					<stop  offset="1" style="stop-color:#FEB3B1"/>
				</linearGradient>
				<path style="fill:url(#SVGID_00000039813959694928458550000004752690153981370531_);" d="M1680.056,2202.084l166.323-284.307
					c-49.736-40.962-81.707-104.68-81.707-176.92c0-17.454,1.885-34.471,5.431-50.848l-304.88-113.967
					c-16.389,53.313-25.238,110.056-25.238,168.85C1439.984,1939.581,1536.181,2107.227,1680.056,2202.084z"/>
			</g>
			<g>
				
					<linearGradient id="SVGID_00000129908493860749538970000013980747544406170539_" gradientUnits="userSpaceOnUse" x1="1604.7848" y1="2039.1628" x2="4591.856" y2="-721.168">
					<stop  offset="0" style="stop-color:#E1473D"/>
					<stop  offset="1" style="stop-color:#E9605A"/>
				</linearGradient>
				<path style="fill:url(#SVGID_00000129908493860749538970000013980747544406170539_);" d="M2017.448,1513.764
					c95.999,16.057,169.778,98.886,178.54,201.101l463.271,15.526c0-0.218,0.003-0.435,0.003-0.653
					c0-378.05-270.648-702.42-633.498-745.26L2017.448,1513.764z"/>
			</g>
		</g>
		<g>
			<g>
				<g style="opacity:0.3;">
					
						<linearGradient id="SVGID_00000129166479882554709690000006272766916614555010_" gradientUnits="userSpaceOnUse" x1="-2120.9573" y1="185.7204" x2="-1559.5981" y2="185.7204" gradientTransform="matrix(0.544 0.8391 -0.8391 0.544 4068.1052 2258.0295)">
						<stop  offset="0" style="stop-color:#4042E2"/>
						<stop  offset="1" style="stop-color:#4F52FF"/>
					</linearGradient>
					<path style="fill:url(#SVGID_00000129166479882554709690000006272766916614555010_);" d="M2578.958,709.857
						c-2.706-4.174-1.875-9.805,2.079-12.998c8.647-6.987,17.727-13.7,26.986-19.956c4.505-3.044,10.623-1.861,13.666,2.643
						c0.035,0.055,0.07,0.108,0.104,0.161c2.909,4.487,1.701,10.497-2.75,13.504c-8.797,5.943-17.421,12.321-25.636,18.957
						c-4.227,3.416-10.425,2.759-13.841-1.471C2579.345,710.427,2579.144,710.144,2578.958,709.857z M2651.245,663.754
						c-0.209-0.323-0.402-0.662-0.577-1.017c-2.401-4.876-0.394-10.777,4.483-13.177c10.017-4.929,20.344-9.479,30.693-13.522
						c5.063-1.978,10.748,0.51,12.751,5.584c1.977,5.063-0.527,10.771-5.586,12.747c-9.837,3.844-19.647,8.166-29.167,12.853
						C2659.32,669.448,2653.92,667.881,2651.245,663.754z M2731.885,634.713c-0.596-0.919-1.047-1.955-1.315-3.082
						c-1.252-5.289,2.016-10.594,7.305-11.848c10.839-2.573,21.927-4.706,32.955-6.338c5.378-0.792,10.376,2.924,11.177,8.294
						c0.795,5.376-2.919,10.381-8.295,11.177c-10.472,1.549-20.998,3.574-31.293,6.017
						C2738.258,639.921,2734.085,638.107,2731.885,634.713z M2817.012,624.432c-0.985-1.52-1.562-3.329-1.576-5.273
						c-0.041-5.435,4.334-9.874,9.768-9.915c11.149-0.08,22.435,0.318,33.545,1.187c5.413,0.429,9.462,5.161,9.044,10.58
						c-0.424,5.417-5.161,9.466-10.58,9.044c-10.55-0.826-21.27-1.207-31.865-1.126
						C2821.858,628.953,2818.78,627.159,2817.012,624.432z M2902.293,633.392c-1.381-2.131-1.942-4.791-1.353-7.466
						c1.167-5.31,6.417-8.667,11.723-7.499c10.862,2.388,21.776,5.274,32.433,8.583c5.193,1.607,8.098,7.12,6.485,12.314
						c-1.611,5.19-7.124,8.093-12.317,6.484c-10.13-3.146-20.503-5.889-30.825-8.158
						C2905.805,637.07,2903.652,635.488,2902.293,633.392z M2983.462,660.991c-1.789-2.76-2.156-6.352-0.655-9.547
						c2.313-4.92,8.173-7.032,13.093-4.722c10.081,4.738,20.087,9.968,29.732,15.547c4.707,2.723,6.313,8.742,3.591,13.448
						c-2.719,4.703-8.74,6.312-13.445,3.591c-9.167-5.3-18.67-10.27-28.249-14.772
						C2985.803,663.727,2984.427,662.48,2983.462,660.991z M3199.288,950.855c-0.741-1.144-1.254-2.458-1.469-3.892
						c-1.565-10.457-3.609-20.987-6.075-31.294c-1.264-5.285,1.996-10.596,7.28-11.859c5.286-1.267,10.597,1.993,11.862,7.28
						c2.598,10.856,4.751,21.946,6.401,32.957c0.805,5.377-2.902,10.386-8.276,11.19
						C3205.068,955.828,3201.322,953.994,3199.288,950.855z M3056.448,705.864c-2.221-3.426-2.148-8.02,0.507-11.416
						c3.349-4.283,9.534-5.039,13.815-1.692c8.777,6.861,17.361,14.188,25.516,21.778c3.96,3.72,4.206,9.93,0.5,13.91
						c-3.702,3.978-9.93,4.201-13.911,0.499c-7.743-7.209-15.895-14.166-24.229-20.682
						C3057.764,707.568,3057.027,706.756,3056.448,705.864z M3177.114,868.04c-0.353-0.545-0.66-1.132-0.907-1.76
						c-3.869-9.848-8.217-19.658-12.915-29.16c-2.408-4.874-0.412-10.777,4.459-13.185c4.872-2.407,10.795-0.428,13.185,4.46
						c4.943,9.999,9.518,20.322,13.591,30.683c1.988,5.059-0.502,10.774-5.56,12.76
						C3184.539,873.579,3179.607,871.885,3177.114,868.04z M3117.582,765.915c-2.702-4.168-1.879-9.789,2.064-12.986
						c4.222-3.424,10.418-2.777,13.846,1.443c7.01,8.643,13.741,17.706,20.001,26.938c0.041,0.056,0.079,0.115,0.117,0.174
						c2.905,4.48,1.704,10.481-2.734,13.493c-4.5,3.052-10.619,1.881-13.669-2.619c-5.949-8.768-12.344-17.375-19.005-25.586
						C3117.98,766.493,3117.771,766.207,3117.582,765.915z"/>
					
						<linearGradient id="SVGID_00000037682171864727362230000017600053632140936115_" gradientUnits="userSpaceOnUse" x1="-1532.3112" y1="37.8848" x2="-1499.5275" y2="37.8848" gradientTransform="matrix(0.544 0.8391 -0.8391 0.544 4068.1052 2258.0295)">
						<stop  offset="0" style="stop-color:#4042E2"/>
						<stop  offset="1" style="stop-color:#4F52FF"/>
					</linearGradient>
					<path style="fill:url(#SVGID_00000037682171864727362230000017600053632140936115_);" d="M3203.296,1019.845
						c-1.054-1.626-1.642-3.579-1.574-5.664c0.167-5.072,0.227-10.23,0.188-15.337c-0.045-5.434,4.326-9.878,9.76-9.921
						c5.436-0.046,9.885,4.324,9.92,9.762c0.045,5.37-0.021,10.795-0.194,16.133c-0.177,5.431-4.725,9.694-10.154,9.517
						C3207.891,1024.228,3204.99,1022.458,3203.296,1019.845z"/>
				</g>
				<g style="opacity:0.3;">
					
						<linearGradient id="SVGID_00000054977648462818707170000004010211633739626165_" gradientUnits="userSpaceOnUse" x1="-1362.1549" y1="288.4053" x2="-1339.6588" y2="288.4053" gradientTransform="matrix(0.544 0.8391 -0.8391 0.544 4068.1052 2258.0295)">
						<stop  offset="0" style="stop-color:#4042E2"/>
						<stop  offset="1" style="stop-color:#4F52FF"/>
					</linearGradient>
					<path style="fill:url(#SVGID_00000054977648462818707170000004010211633739626165_);" d="M3077.211,1292.112
						c-2.584-3.986-1.968-9.367,1.671-12.652c3.767-3.397,7.528-6.932,11.173-10.504c3.883-3.805,10.114-3.741,13.917,0.141
						c3.82,3.899,3.74,10.115-0.141,13.918c-3.839,3.76-7.798,7.483-11.764,11.062c-4.036,3.64-10.259,3.32-13.9-0.715
						C3077.81,1292.965,3077.493,1292.546,3077.211,1292.112z"/>
					
						<linearGradient id="SVGID_00000008867452294785763570000012852507078097248914_" gradientUnits="userSpaceOnUse" x1="-1913.0649" y1="544.293" x2="-1334.8529" y2="544.293" gradientTransform="matrix(0.544 0.8391 -0.8391 0.544 4068.1052 2258.0295)">
						<stop  offset="0" style="stop-color:#4042E2"/>
						<stop  offset="1" style="stop-color:#4F52FF"/>
					</linearGradient>
					<path style="fill:url(#SVGID_00000008867452294785763570000012852507078097248914_);" d="M2498.819,1216.531
						c-2.463-3.8-4.871-7.656-7.223-11.567c-2.8-4.658-1.296-10.705,3.362-13.507c4.658-2.802,10.735-1.285,13.508,3.359
						c5.429,9.026,11.212,17.812,17.26,26.209c3.172,4.42,2.177,10.56-2.232,13.737c-4.413,3.179-10.564,2.178-13.74-2.233
						C2506.01,1227.336,2502.333,1221.952,2498.819,1216.531z M2467.921,1158.712c-0.299-0.461-0.564-0.956-0.789-1.479
						c-4.336-10.088-8.292-20.473-11.757-30.864c-1.72-5.155,1.067-10.729,6.22-12.448c5.157-1.719,10.748,1.068,12.45,6.223
						c3.292,9.869,7.052,19.733,11.169,29.322c2.146,4.993-0.163,10.78-5.154,12.925
						C2475.587,1164.311,2470.481,1162.662,2467.921,1158.712z M2542.862,1272.353c-2.524-3.894-2.006-9.152,1.474-12.468
						c3.937-3.75,10.166-3.598,13.917,0.336c7.171,7.529,14.763,14.851,22.571,21.765c4.063,3.611,4.445,9.825,0.842,13.893
						c-3.606,4.069-9.827,4.445-13.895,0.841c-8.22-7.281-16.217-14.995-23.77-22.922
						C2543.569,1273.345,2543.19,1272.859,2542.862,1272.353z M2443.345,1077.979c-0.68-1.049-1.166-2.245-1.411-3.547
						c-2.011-10.784-3.585-21.786-4.679-32.695c-0.542-5.407,3.402-10.229,8.81-10.771c5.411-0.543,10.233,3.397,10.773,8.81
						c1.039,10.359,2.533,20.805,4.444,31.047c0.999,5.342-2.528,10.483-7.87,11.478
						C2449.375,1083.054,2445.449,1081.226,2443.345,1077.979z M2607.428,1326.583c-2.07-3.194-2.178-7.444,0.068-10.815
						c3.014-4.524,9.125-5.748,13.649-2.734c8.647,5.763,17.665,11.236,26.801,16.27c4.76,2.622,6.496,8.607,3.87,13.37
						c-2.624,4.759-8.606,6.491-13.366,3.868c-9.619-5.298-19.113-11.06-28.219-17.128
						C2609.078,1328.647,2608.137,1327.676,2607.428,1326.583z M2682.333,1365.333c-1.655-2.553-2.106-5.836-0.932-8.893
						c1.953-5.073,7.647-7.603,12.72-5.65c9.729,3.742,19.729,7.119,29.72,10.036c5.22,1.516,8.216,6.978,6.692,12.203
						c-1.524,5.218-6.987,8.212-12.206,6.691c-10.516-3.07-21.038-6.623-31.275-10.563
						C2685.039,1368.382,2683.425,1367.017,2682.333,1365.333z M2763.904,1386.831c-1.259-1.942-1.841-4.331-1.473-6.802
						c0.8-5.375,5.808-9.084,11.184-8.283c10.32,1.538,20.814,2.659,31.198,3.327c5.422,0.35,9.538,5.023,9.187,10.455
						c-0.351,5.423-5.029,9.536-10.455,9.187c-10.926-0.706-21.973-1.882-32.831-3.5
						C2767.807,1390.781,2765.387,1389.118,2763.904,1386.831z M2848.216,1390.027c-0.872-1.345-1.427-2.922-1.552-4.634
						c-0.394-5.421,3.68-10.133,9.101-10.527c10.401-0.755,20.883-1.963,31.162-3.591c5.368-0.85,10.413,2.818,11.261,8.178
						c0.851,5.37-2.813,10.411-8.18,11.261c-10.827,1.716-21.868,2.988-32.815,3.783
						C2853.482,1394.766,2850.105,1392.942,2848.216,1390.027z M2931.204,1374.631c-0.49-0.756-0.883-1.595-1.158-2.5
						c-1.579-5.2,1.357-10.697,6.557-12.274c9.952-3.023,19.906-6.509,29.591-10.368c5.05-2.012,10.777,0.468,12.784,5.501
						c2.013,5.049-0.451,10.774-5.501,12.786c-10.195,4.061-20.675,7.733-31.153,10.913
						C2938.029,1379.993,2933.53,1378.218,2931.204,1374.631z M3008.731,1341.402c-0.11-0.17-0.214-0.345-0.315-0.522
						c-2.673-4.731-1.004-10.736,3.728-13.408c6.68-3.774,13.321-7.797,19.747-11.963c2.326-1.508,4.631-3.041,6.911-4.59
						c4.497-3.055,10.619-1.887,13.672,2.609c3.182,4.491,1.887,10.615-2.606,13.669c-2.401,1.632-4.822,3.24-7.27,4.828
						c-6.758,4.381-13.749,8.615-20.774,12.583C3017.27,1347.182,3011.538,1345.732,3008.731,1341.402z"/>
					
						<linearGradient id="SVGID_00000123407679854375488140000013956244650582500786_" gradientUnits="userSpaceOnUse" x1="-1970.6973" y1="666.1476" x2="-1938.3317" y2="666.1476" gradientTransform="matrix(0.544 0.8391 -0.8391 0.544 4068.1052 2258.0295)">
						<stop  offset="0" style="stop-color:#4042E2"/>
						<stop  offset="1" style="stop-color:#4F52FF"/>
					</linearGradient>
					<path style="fill:url(#SVGID_00000123407679854375488140000013956244650582500786_);" d="M2437.165,993.581
						c-1.064-1.642-1.651-3.614-1.574-5.714c0.2-5.325,0.516-10.745,0.94-16.112c0.427-5.419,5.167-9.466,10.584-9.037
						c5.419,0.43,9.466,5.161,9.037,10.584c-0.402,5.098-0.701,10.247-0.892,15.302c-0.201,5.429-4.769,9.668-10.201,9.465
						C2441.729,997.943,2438.848,996.178,2437.165,993.581z"/>
				</g>
				<g>
					
						<linearGradient id="SVGID_00000181048309584645356920000005550103995137173661_" gradientUnits="userSpaceOnUse" x1="-395.0031" y1="939.164" x2="-2457.4485" y2="33.702" gradientTransform="matrix(0.544 0.8391 -0.8391 0.544 4068.1052 2258.0295)">
						<stop  offset="0" style="stop-color:#4042E2"/>
						<stop  offset="1" style="stop-color:#4F52FF"/>
					</linearGradient>
					<path style="fill:url(#SVGID_00000181048309584645356920000005550103995137173661_);" d="M2540.174,942.633
						c-0.601,1.868,0.05,3.912,1.62,5.089l44.794,33.579c-2.118,26.058-0.098,52.642,6.404,78.75l-38.727,40.376
						c-1.359,1.416-1.668,3.538-0.773,5.284l30.662,59.742c0.897,1.746,2.802,2.73,4.743,2.453l55.383-7.925
						c17.422,20.504,37.841,37.644,60.248,51.114l1.167,55.971c0.041,1.962,1.322,3.682,3.19,4.282l63.925,20.563
						c1.869,0.601,3.913-0.05,5.089-1.62l33.579-44.794c26.058,2.119,52.643,0.097,78.75-6.405l40.377,38.728
						c1.416,1.358,3.538,1.669,5.284,0.773l59.743-30.662c1.746-0.896,2.731-2.801,2.452-4.744l-7.925-55.383
						c20.504-17.421,37.645-37.84,51.114-60.247l55.972-1.167c1.961-0.041,3.681-1.322,4.282-3.19l20.562-63.925
						c0.602-1.868-0.05-3.912-1.62-5.089l-44.794-33.579c2.12-26.058,0.099-52.642-6.404-78.75l38.728-40.377
						c1.358-1.416,1.669-3.538,0.773-5.284l-30.663-59.742c-0.896-1.746-2.801-2.731-4.744-2.453l-55.383,7.925
						c-17.42-20.505-37.841-37.645-60.248-51.115l-1.167-55.97c-0.04-1.962-1.322-3.683-3.19-4.283l-63.925-20.562
						c-1.868-0.601-3.911,0.05-5.089,1.619l-33.579,44.794c-26.058-2.12-52.642-0.098-78.75,6.405l-40.377-38.728
						c-1.415-1.358-3.538-1.669-5.284-0.772l-59.741,30.662c-1.746,0.896-2.731,2.801-2.454,4.744l7.925,55.383
						c-20.503,17.421-37.644,37.84-51.114,60.247l-55.971,1.167c-1.962,0.041-3.681,1.321-4.283,3.19L2540.174,942.633z"/>
					<g>
						<path style="fill:#91B3FA;" d="M2774.464,1037.635c-17.898-27.61-13.339-64.996,12.084-87.361
							c27.948-24.584,70.68-21.846,95.264,6.098c11.914,13.537,17.834,30.903,16.681,48.893c-1.15,17.992-9.24,34.461-22.779,46.368
							c-27.948,24.584-70.68,21.846-95.263-6.098C2778.236,1043.015,2776.238,1040.372,2774.464,1037.635z M2874.625,972.89
							c-1.382-2.132-2.927-4.175-4.635-6.119c-18.846-21.426-51.615-23.522-73.039-4.677c-21.427,18.849-23.537,51.615-4.677,73.041
							c18.846,21.426,51.614,23.522,73.039,4.677c10.381-9.132,16.583-21.756,17.466-35.553
							C2883.495,993.047,2880.627,982.149,2874.625,972.89z"/>
					</g>
					<path style="fill:#91B3FA;" d="M2693.408,1091.823c-3.074-4.742-5.927-9.666-8.543-14.762l0,0
						c-0.824-1.603-1.621-3.222-2.393-4.851c-3.803-8.037-6.961-16.364-9.426-24.852c-0.034-0.116-0.067-0.231-0.101-0.347
						c-0.094-0.329-0.188-0.657-0.278-0.988c-0.182-0.641-0.355-1.284-0.529-1.925c-0.454-1.689,0.263-3.417,1.656-4.322
						c0.339-0.219,0.718-0.39,1.128-0.5c2.099-0.563,4.253,0.688,4.819,2.784c2.896,10.806,6.977,21.371,12.129,31.404
						c25.573,49.845,74.144,80.334,126.173,85.201c28.939,2.711,58.949-2.508,86.669-16.737c4.862-2.494,9.561-5.215,14.083-8.149
						c30.437-19.735,52.972-49.093,64.228-84.091c12.932-40.2,9.434-83.032-9.848-120.6
						c-39.831-77.586-135.29-108.268-212.842-68.464c-4.782,2.454-9.422,5.141-13.901,8.047
						c-19.414,12.59-35.858,29.288-48.092,48.953c-0.317,0.508-0.728,0.919-1.2,1.223c-1.239,0.803-2.884,0.873-4.221,0.04
						c-1.844-1.155-2.417-3.573-1.262-5.424c12.845-20.646,30.108-38.179,50.49-51.396c4.702-3.05,9.572-5.87,14.59-8.448
						c81.423-41.791,181.668-9.521,223.444,71.872c20.244,39.441,23.914,84.404,10.337,126.607
						c-11.816,36.742-35.475,67.562-67.426,88.281c-4.748,3.078-9.682,5.934-14.782,8.554
						c-39.444,20.243-84.407,23.916-126.609,10.341C2744.951,1147.454,2714.127,1123.785,2693.408,1091.823z"/>
				</g>
			</g>
			<g>
				<g style="opacity:0.3;">
					
						<linearGradient id="SVGID_00000122711830809597562030000004574422539486661539_" gradientUnits="userSpaceOnUse" x1="-2454.8823" y1="653.2292" x2="-2438.8828" y2="653.2292" gradientTransform="matrix(0.544 0.8391 -0.8391 0.544 4068.1052 2258.0295)">
						<stop  offset="0" style="stop-color:#4042E2"/>
						<stop  offset="1" style="stop-color:#4F52FF"/>
					</linearGradient>
					<path style="fill:url(#SVGID_00000122711830809597562030000004574422539486661539_);" d="M2178.65,569.121
						c-1.43-2.206-1.309-5.172,0.495-7.268c3.364-3.913,6.892-7.778,10.488-11.485c2.336-2.409,6.181-2.468,8.595-0.132
						c2.423,2.331,2.468,6.185,0.132,8.595c-3.426,3.533-6.789,7.216-10,10.95c-2.185,2.544-6.023,2.832-8.572,0.647
						C2179.336,570.038,2178.958,569.597,2178.65,569.121z"/>
					
						<linearGradient id="SVGID_00000139985142629006596150000011125633049412970423_" gradientUnits="userSpaceOnUse" x1="-2461.3574" y1="473.4842" x2="-2147.7551" y2="473.4842" gradientTransform="matrix(0.544 0.8391 -0.8391 0.544 4068.1052 2258.0295)">
						<stop  offset="0" style="stop-color:#4042E2"/>
						<stop  offset="1" style="stop-color:#4F52FF"/>
					</linearGradient>
					<path style="fill:url(#SVGID_00000139985142629006596150000011125633049412970423_);" d="M2212.259,536.613
						c-1.676-2.585-1.155-6.071,1.297-8.038c6.926-5.565,14.219-10.838,21.67-15.668c1.569-1.017,3.155-2.02,4.754-3.011
						c2.859-1.765,6.594-0.664,8.372,1.969c1.766,2.855,0.883,6.601-1.968,8.368c-1.53,0.946-3.046,1.904-4.545,2.875
						c-7.108,4.608-14.063,9.636-20.669,14.941c-2.618,2.104-6.441,1.686-8.546-0.929
						C2212.494,536.953,2212.371,536.785,2212.259,536.613z M2265.934,503.41c-0.156-0.241-0.302-0.498-0.425-0.764
						c-1.405-3.051-0.074-6.662,2.975-8.069c9.78-4.514,19.927-8.46,30.153-11.726c3.199-1.023,6.619,0.76,7.64,3.94
						c1.021,3.201-0.74,6.616-3.94,7.64c-9.758,3.117-19.435,6.883-28.763,11.186
						C2270.796,506.897,2267.552,505.906,2265.934,503.41z M2326.056,484.216c-0.42-0.647-0.721-1.386-0.874-2.189
						c-0.617-3.299,1.562-6.474,4.862-7.091c10.571-1.972,21.384-3.308,32.132-3.958c3.355-0.205,6.229,2.34,6.434,5.701
						c0.204,3.348-2.349,6.231-5.697,6.434c-10.25,0.622-20.556,1.89-30.639,3.775
						C2329.779,487.352,2327.356,486.221,2326.056,484.216z M2389.06,480.389c-0.685-1.056-1.045-2.332-0.965-3.682
						c0.212-3.35,3.102-5.898,6.451-5.686c10.754,0.68,21.556,2.032,32.114,4.023c3.298,0.625,5.462,3.81,4.843,7.1
						c-0.62,3.299-3.798,5.468-7.101,4.847c-10.061-1.9-20.369-3.19-30.621-3.837C2391.782,483.028,2390.072,481.95,2389.06,480.389
						z M2451.086,492.066c-0.956-1.474-1.268-3.352-0.691-5.159c1.019-3.196,4.438-4.96,7.638-3.943
						c10.25,3.273,20.397,7.207,30.156,11.698c3.058,1.399,4.387,5.012,2.983,8.062c-1.404,3.05-5.015,4.386-8.061,2.983
						c-9.313-4.284-18.991-8.038-28.774-11.158C2452.945,494.104,2451.824,493.204,2451.086,492.066z M2508.391,518.44
						c-1.239-1.91-1.345-4.444-0.068-6.511c1.766-2.853,5.511-3.731,8.366-1.967c9.148,5.665,18.029,11.955,26.388,18.696
						c2.614,2.122,3.02,5.937,0.916,8.55c-2.105,2.613-5.935,3.023-8.545,0.917c-7.974-6.429-16.436-12.424-25.157-17.824
						C2509.5,519.811,2508.864,519.169,2508.391,518.44z M2557.496,558.013c-1.55-2.391-1.245-5.62,0.878-7.671
						c2.414-2.333,6.262-2.267,8.597,0.146c7.454,7.711,14.519,15.992,21.006,24.612c1.977,2.722,1.475,6.5-1.208,8.514
						c-2.682,2.018-6.492,1.478-8.512-1.203c-6.182-8.227-12.922-16.124-20.029-23.476
						C2557.948,558.647,2557.706,558.337,2557.496,558.013z M2609.477,636.784c-0.19-0.294-0.361-0.611-0.502-0.948
						c-3.446-8.164-7.4-16.283-11.753-24.133c-0.653-1.193-1.308-2.356-1.976-3.508c-1.675-2.911-0.681-6.626,2.229-8.303
						c2.912-1.685,6.722-0.717,8.304,2.225c0.707,1.232,1.407,2.466,2.091,3.717c4.546,8.202,8.691,16.713,12.303,25.276
						c1.305,3.094-0.142,6.657-3.236,7.962C2614.183,640.234,2611.052,639.212,2609.477,636.784z"/>
				</g>
				<g style="opacity:0.3;">
					
						<linearGradient id="SVGID_00000028285619253152075000000005678771983734487985_" gradientUnits="userSpaceOnUse" x1="-2321.416" y1="774.1163" x2="-1963.4949" y2="774.1163" gradientTransform="matrix(0.544 0.8391 -0.8391 0.544 4068.1052 2258.0295)">
						<stop  offset="0" style="stop-color:#4042E2"/>
						<stop  offset="1" style="stop-color:#4F52FF"/>
					</linearGradient>
					<path style="fill:url(#SVGID_00000028285619253152075000000005678771983734487985_);" d="M2159.908,878.862
						c-1.805-2.784-1.039-6.514,1.731-8.362c2.79-1.862,6.568-1.109,8.428,1.685c5.607,8.409,11.774,16.547,18.332,24.187
						c2.149,2.551,1.897,6.385-0.653,8.573c-2.55,2.188-6.386,1.891-8.573-0.654c-6.873-8.016-13.343-16.545-19.219-25.359
						C2159.953,878.932,2159.923,878.884,2159.908,878.862z M2144.242,851.999c-0.12-0.185-0.227-0.373-0.328-0.572
						c-4.777-9.442-9.027-19.272-12.635-29.214c-1.142-3.158,0.484-6.641,3.64-7.785c3.16-1.15,6.644,0.503,7.79,3.637
						c3.441,9.488,7.498,18.866,12.053,27.879c1.516,2.994,0.314,6.651-2.68,8.165
						C2149.279,855.525,2145.908,854.569,2144.242,851.999z M2200.338,925.952c-1.466-2.261-1.291-5.31,0.609-7.398
						c2.256-2.478,6.1-2.66,8.583-0.4c7.481,6.805,15.434,13.213,23.649,19.042c2.734,1.959,3.38,5.739,1.433,8.476
						c-1.94,2.736-5.738,3.381-8.476,1.438c-8.61-6.112-16.948-12.832-24.786-19.968
						C2200.952,926.781,2200.615,926.38,2200.338,925.952z M2123.1,793.609c-0.376-0.58-0.659-1.234-0.824-1.948
						c-2.368-10.321-4.121-20.893-5.207-31.419c-0.347-3.34,2.082-6.326,5.422-6.673c3.33-0.341,6.318,2.087,6.669,5.421
						c1.039,10.037,2.711,20.113,4.966,29.955c0.749,3.271-1.295,6.534-4.567,7.283
						C2127.002,796.813,2124.449,795.691,2123.1,793.609z M2250.948,961.869c-1.17-1.806-1.345-4.18-0.25-6.201
						c1.598-2.957,5.287-4.054,8.239-2.459c8.87,4.801,18.127,9.107,27.522,12.797c3.131,1.228,4.663,4.759,3.433,7.883
						c-1.229,3.124-4.759,4.663-7.883,3.434c-9.847-3.874-19.556-8.386-28.858-13.416
						C2252.225,963.403,2251.482,962.693,2250.948,961.869z M2308.698,984.597c-0.896-1.382-1.229-3.119-0.785-4.836
						c0.844-3.249,4.162-5.202,7.41-4.358c9.789,2.539,19.815,4.507,29.797,5.85c3.332,0.447,5.665,3.511,5.215,6.834
						c-0.446,3.327-3.504,5.659-6.829,5.212c-10.468-1.406-20.979-3.467-31.236-6.128
						C2310.74,986.775,2309.496,985.828,2308.698,984.597z M2370.237,992.837c-0.629-0.971-0.992-2.13-0.973-3.377
						c0.038-3.357,2.795-6.046,6.152-6.005c10.108,0.129,20.313-0.367,30.328-1.472c3.331-0.363,6.339,2.042,6.704,5.377
						c0.367,3.338-2.038,6.339-5.378,6.708c-10.5,1.154-21.204,1.677-31.807,1.547
						C2373.152,995.588,2371.305,994.485,2370.237,992.837z"/>
					
						<linearGradient id="SVGID_00000096041485842124602920000004381815291713718170_" gradientUnits="userSpaceOnUse" x1="-2360.7607" y1="796.493" x2="-2336.283" y2="796.493" gradientTransform="matrix(0.544 0.8391 -0.8391 0.544 4068.1052 2258.0295)">
						<stop  offset="0" style="stop-color:#4042E2"/>
						<stop  offset="1" style="stop-color:#4F52FF"/>
					</linearGradient>
					<path style="fill:url(#SVGID_00000096041485842124602920000004381815291713718170_);" d="M2116.698,731.56
						c-0.638-0.984-0.998-2.162-0.974-3.423c0.102-5.202,0.36-10.423,0.761-15.522c0.266-3.345,3.192-5.847,6.539-5.583
						c3.339,0.273,5.84,3.193,5.583,6.54c-0.385,4.862-0.629,9.844-0.729,14.808c-0.066,3.357-2.844,6.024-6.198,5.956
						C2119.587,734.292,2117.759,733.196,2116.698,731.56z"/>
				</g>
				<g>
					
						<linearGradient id="SVGID_00000063597545757713111600000014725353261482505612_" gradientUnits="userSpaceOnUse" x1="-556.8182" y1="1307.1521" x2="-2619.2622" y2="401.6908" gradientTransform="matrix(0.544 0.8391 -0.8391 0.544 4068.1052 2258.0295)">
						<stop  offset="0" style="stop-color:#4042E2"/>
						<stop  offset="1" style="stop-color:#4F52FF"/>
					</linearGradient>
					<path style="fill:url(#SVGID_00000063597545757713111600000014725353261482505612_);" d="M2185.337,693.087
						c-0.402,1.249,0.033,2.618,1.083,3.405l29.974,22.47c-1.418,17.436-0.066,35.225,4.285,52.695l-25.914,27.018
						c-0.909,0.947-1.116,2.367-0.517,3.536l20.517,39.977c0.6,1.168,1.875,1.827,3.175,1.642l37.059-5.303
						c11.658,13.72,25.321,25.19,40.315,34.203l0.78,37.453c0.028,1.313,0.885,2.464,2.135,2.866l42.776,13.759
						c1.251,0.402,2.618-0.033,3.406-1.084l22.469-29.974c17.437,1.418,35.226,0.066,52.696-4.286l27.018,25.915
						c0.948,0.909,2.367,1.117,3.536,0.517l39.977-20.518c1.169-0.6,1.828-1.875,1.641-3.174l-5.303-37.06
						c13.72-11.657,25.19-25.321,34.203-40.315l37.454-0.781c1.312-0.028,2.463-0.885,2.865-2.134l13.76-42.776
						c0.403-1.25-0.033-2.617-1.083-3.405l-29.975-22.469c1.419-17.437,0.066-35.225-4.285-52.695l25.915-27.019
						c0.908-0.948,1.117-2.367,0.517-3.536l-20.518-39.977c-0.599-1.168-1.874-1.827-3.174-1.641l-37.06,5.303
						c-11.657-13.721-25.321-25.191-40.315-34.204l-0.781-37.452c-0.027-1.313-0.885-2.464-2.135-2.866l-42.776-13.759
						c-1.25-0.402-2.617,0.033-3.405,1.084l-22.47,29.974c-17.437-1.418-35.225-0.065-52.696,4.286l-27.018-25.915
						c-0.947-0.908-2.367-1.117-3.535-0.516l-39.976,20.517c-1.168,0.6-1.827,1.874-1.642,3.174l5.303,37.06
						c-13.72,11.657-25.189,25.321-34.203,40.314l-37.454,0.781c-1.313,0.028-2.463,0.885-2.866,2.135L2185.337,693.087z"/>
					<g>
						<path style="fill:#91B3FA;" d="M2341.394,757.044c-5.334-8.228-7.882-17.909-7.245-27.872
							c0.785-12.255,6.297-23.472,15.52-31.583c19.028-16.742,48.135-14.88,64.886,4.152c16.733,19.091,14.879,48.15-4.155,64.893
							c-9.221,8.114-21.051,12.149-33.303,11.363c-12.258-0.783-23.477-6.293-31.587-15.52
							C2343.995,760.753,2342.619,758.935,2341.394,757.044z M2408.426,713.73c-0.89-1.373-1.889-2.695-2.999-3.96
							c-12.321-13.999-33.731-15.368-47.733-3.051c-6.779,5.965-10.839,14.217-11.413,23.23c-0.577,9.019,2.398,17.712,8.357,24.503
							l0,0c5.967,6.782,14.22,10.837,23.232,11.415c9.019,0.577,17.719-2.392,24.504-8.361
							C2415.11,746.302,2417.394,727.564,2408.426,713.73z"/>
					</g>
					<path style="fill:#91B3FA;" d="M2284.926,794.69c-2.092-3.228-4.036-6.587-5.832-10.077
						c-3.561-6.934-6.421-14.237-8.503-21.727c-0.091-0.337-0.182-0.674-0.273-1.012c-0.701-2.609,0.407-5.276,2.557-6.673
						c0.523-0.339,1.109-0.602,1.742-0.772c3.242-0.87,6.563,1.066,7.441,4.298c1.877,7.01,4.521,13.849,7.85,20.328l0.002,0.003
						c0.181,0.356,0.37,0.711,0.555,1.062c8.02,15.263,19.54,27.949,33.508,37.276c7.583,5.062,15.895,9.132,24.771,12.076
						c0.072,0.024,0.144,0.048,0.216,0.072c0.224,0.071,0.441,0.146,0.663,0.214c26.025,8.369,53.753,6.107,78.073-6.377
						c3.149-1.613,6.188-3.375,9.117-5.273c19.703-12.776,34.291-31.783,41.582-54.442c8.37-26.026,6.102-53.75-6.38-78.069
						c-12.484-24.3-33.691-42.325-59.713-50.701c-26.025-8.369-53.753-6.107-78.074,6.377c-3.096,1.586-6.099,3.328-8.997,5.207
						c-12.571,8.152-23.214,18.96-31.133,31.691c-0.489,0.784-1.124,1.419-1.853,1.888c-1.913,1.24-4.453,1.348-6.518,0.062
						c-2.845-1.781-3.726-5.519-1.949-8.375c8.862-14.244,20.772-26.34,34.829-35.46c3.248-2.105,6.605-4.052,10.066-5.828
						c27.214-13.967,58.234-16.499,87.353-7.133c29.113,9.367,52.85,29.485,66.804,56.718c13.968,27.21,16.503,58.228,7.132,87.347
						c-8.15,25.349-24.474,46.612-46.518,60.906c-3.272,2.121-6.676,4.095-10.195,5.901
						C2380.567,861.234,2316.469,843.348,2284.926,794.69z"/>
				</g>
			</g>
		</g>
		<g>
			<g>
				<g>
					<g>
						
							<linearGradient id="SVGID_00000080904692429721802970000005624858260518764709_" gradientUnits="userSpaceOnUse" x1="8416.2617" y1="3209.9526" x2="8582.3682" y2="3209.9526" gradientTransform="matrix(1 0 0 1 -7332.9595 0)">
							<stop  offset="0" style="stop-color:#4042E2"/>
							<stop  offset="1" style="stop-color:#4F52FF"/>
						</linearGradient>
						<path style="fill:url(#SVGID_00000080904692429721802970000005624858260518764709_);" d="M1244.718,3201.919
							c-28.456,2.46-77.843,6.456-116.778,8.168c-23.404,1.03-36.878-1.262-44.638-4.369c0.013,0.875,0.038,1.702,0.072,2.47
							c0.184,4.096,3.514,7.375,7.651,7.605c73.568,4.106,132.077,1.421,152.907,0.154c4.307-0.262,6.874-4.943,4.671-8.615
							C1247.501,3205.496,1246.167,3203.697,1244.718,3201.919z"/>
						
							<linearGradient id="SVGID_00000023282249256716333740000001283256741633870512_" gradientUnits="userSpaceOnUse" x1="8416.252" y1="3177.3979" x2="8577.6777" y2="3177.3979" gradientTransform="matrix(1 0 0 1 -7332.9595 0)">
							<stop  offset="0" style="stop-color:#09005D"/>
							<stop  offset="1" style="stop-color:#1A0F91"/>
						</linearGradient>
						<path style="fill:url(#SVGID_00000023282249256716333740000001283256741633870512_);" d="M1127.94,3210.087
							c38.934-1.713,88.321-5.709,116.778-8.168c-27.977-34.325-116.778-57.46-116.778-57.46h-25.08
							c-17.25,24.865-19.748,48.539-19.559,61.26C1091.062,3208.825,1104.536,3211.117,1127.94,3210.087z"/>
						
							<linearGradient id="SVGID_00000085215549818488971940000011006396821735725218_" gradientUnits="userSpaceOnUse" x1="8431.5967" y1="3131.947" x2="8478.3857" y2="3131.947" gradientTransform="matrix(1 0 0 1 -7332.9595 0)">
							<stop  offset="0" style="stop-color:#FF928E"/>
							<stop  offset="1" style="stop-color:#FEB3B1"/>
						</linearGradient>
						<path style="fill:url(#SVGID_00000085215549818488971940000011006396821735725218_);" d="M1098.637,3103.514l2.347,46.444
							c0.254,5.03,4.018,9.256,9.056,9.976c5.011,0.717,11.723,0.808,18.839-1.561c4.378-1.458,7.629-5.147,8.437-9.647l8.11-45.211
							H1098.637z"/>
					</g>
					<g>
						<g>
							
								<linearGradient id="SVGID_00000077315406772254786470000010360916345892209321_" gradientUnits="userSpaceOnUse" x1="8085.1138" y1="3206.3704" x2="8148.7681" y2="3206.3704" gradientTransform="matrix(1 0 0 1 -7332.9595 0)">
								<stop  offset="0" style="stop-color:#4042E2"/>
								<stop  offset="1" style="stop-color:#4F52FF"/>
							</linearGradient>
							<path style="fill:url(#SVGID_00000077315406772254786470000010360916345892209321_);" d="M772.882,3209.739
								c-12.34-1.721-17.924-8.132-20.265-14.985c-0.015,0.062-0.031,0.123-0.046,0.184c-1.815,7.229,2.393,14.722,10.808,18.285
								c10.17,4.307,21.29,5.041,29.923,4.685c9.262-0.382,17.764-4.214,22.437-10.349l0.07-0.092
								C806.512,3212.067,793.462,3212.609,772.882,3209.739z"/>
							
								<linearGradient id="SVGID_00000182487580569484178490000006113753034408600761_" gradientUnits="userSpaceOnUse" x1="8085.5767" y1="3157.3584" x2="8179.0098" y2="3157.3584" gradientTransform="matrix(1 0 0 1 -7332.9595 0)">
								<stop  offset="0" style="stop-color:#09005D"/>
								<stop  offset="1" style="stop-color:#1A0F91"/>
							</linearGradient>
							<path style="fill:url(#SVGID_00000182487580569484178490000006113753034408600761_);" d="M831.064,3103.217h-20.683
								c-31.504-0.644-51.288,65.805-57.764,91.537c2.341,6.853,7.924,13.264,20.265,14.985c20.58,2.87,33.63,2.328,42.927-2.271
								c17.021-22.398,25.459-55.201,29.515-74.346C849.937,3111.349,831.064,3103.217,831.064,3103.217z"/>
						</g>
						
							<linearGradient id="SVGID_00000008843006256378975860000012551274633127008438_" gradientUnits="userSpaceOnUse" x1="8134.1416" y1="3092.9421" x2="8190.0591" y2="3092.9421" gradientTransform="matrix(1 0 0 1 -7332.9595 0)">
							<stop  offset="0" style="stop-color:#FF928E"/>
							<stop  offset="1" style="stop-color:#FEB3B1"/>
						</linearGradient>
						<path style="fill:url(#SVGID_00000008843006256378975860000012551274633127008438_);" d="M813.039,3060.11l-11.485,45.679
							c-1.408,5.601,1.273,11.394,6.451,14.051c6.425,3.297,15.471,6.762,23.784,5.759c3.91-0.471,7.158-3.225,8.449-6.907
							l16.862-48.059L813.039,3060.11z"/>
					</g>
					
						<linearGradient id="SVGID_00000069361445777842948630000011837069271093546936_" gradientUnits="userSpaceOnUse" x1="8004.6162" y1="3256.4631" x2="8739.1787" y2="2425.3882" gradientTransform="matrix(1 0 0 1 -7332.9595 0)">
						<stop  offset="0" style="stop-color:#09005D"/>
						<stop  offset="1" style="stop-color:#1A0F91"/>
					</linearGradient>
					<path style="fill:url(#SVGID_00000069361445777842948630000011837069271093546936_);" d="M799.34,3073.313
						c14.289,12.675,60.767,14.348,60.767,14.348c167.418-401.821,235.904-458.906,235.904-458.906
						c-24.174,151.665-3.898,487.434-3.898,487.434c27.627,12.191,63.246,0,63.246,0c2.243-248.296,40.408-464.835,85.493-635.55
						c-113.154-2.543-173.329-41.265-192.977-56.805C953.552,2575.901,799.34,3073.313,799.34,3073.313z"/>
					
						<linearGradient id="SVGID_00000106121087280216232730000005831454743864009869_" gradientUnits="userSpaceOnUse" x1="8837.3467" y1="1925.6625" x2="7555.4609" y2="3040.5784" gradientTransform="matrix(1 0 0 1 -7332.9595 0)">
						<stop  offset="0" style="stop-color:#4042E2"/>
						<stop  offset="1" style="stop-color:#4F52FF"/>
					</linearGradient>
					<path style="fill:url(#SVGID_00000106121087280216232730000005831454743864009869_);" d="M1076.61,1961.74
						c-21.417,106.832-13.741,298.041-8.7,385.257c1.417,24.514-15.695,58.497-29.527,81.681c-2.17,3.637-0.83,8.292,2.936,10.229
						c23.157,11.902,101.609,48.788,192.533,53.377c6.063,0.306,11.476-3.823,13.046-9.687
						c67.445-251.832,145.783-412.753,145.783-412.753C1306.194,1931.73,1076.61,1961.74,1076.61,1961.74z"/>
					
						<linearGradient id="SVGID_00000019660107813783091180000003874423561776327598_" gradientUnits="userSpaceOnUse" x1="8322.5762" y1="2885.8625" x2="8349.3701" y2="2832.2744" gradientTransform="matrix(1 0 0 1 -7332.9595 0)">
						<stop  offset="0" style="stop-color:#4042E2"/>
						<stop  offset="1" style="stop-color:#4F52FF"/>
					</linearGradient>
					<path style="fill:url(#SVGID_00000019660107813783091180000003874423561776327598_);" d="M1107.434,2619.243
						c-0.95,0-1.913-0.257-2.786-0.785c-2.526-1.545-3.327-4.839-1.791-7.363c0.9-1.482,22.557-36.485,66.381-57.628
						c2.662-1.278,5.869-0.173,7.16,2.497c1.285,2.666,0.168,5.875-2.5,7.158c-40.855,19.713-61.676,53.214-61.883,53.549
						C1111.005,2618.326,1109.241,2619.243,1107.434,2619.243z"/>
					<g>
						
							<linearGradient id="SVGID_00000120559323193841018350000008977619335425636748_" gradientUnits="userSpaceOnUse" x1="8390.3252" y1="2277.8743" x2="8191.2681" y2="2454.1436" gradientTransform="matrix(1 0 0 1 -7332.9595 0)">
							<stop  offset="0" style="stop-color:#FF928E"/>
							<stop  offset="1" style="stop-color:#FEB3B1"/>
						</linearGradient>
						<path style="fill:url(#SVGID_00000120559323193841018350000008977619335425636748_);" d="M942.268,2268.346
							c6.88,49.768,27.206,104.052,67.867,161.714l15.457-12.601c0,0-17.843-72.394-7.7-154.554
							C992.81,2258.011,963.187,2263.055,942.268,2268.346z"/>
						
							<linearGradient id="SVGID_00000062154876067384298750000004780925101892600497_" gradientUnits="userSpaceOnUse" x1="8730.4785" y1="1807.5127" x2="7454.3745" y2="2917.3997" gradientTransform="matrix(1 0 0 1 -7332.9595 0)">
							<stop  offset="0" style="stop-color:#4042E2"/>
							<stop  offset="1" style="stop-color:#4F52FF"/>
						</linearGradient>
						<path style="fill:url(#SVGID_00000062154876067384298750000004780925101892600497_);" d="M1100.533,2093.557l-23.922-131.817
							c0,0-159.835,122.175-134.342,306.606c20.918-5.291,50.542-10.335,75.624-5.442
							C1025.2,2203.719,1047.027,2139.468,1100.533,2093.557z"/>
					</g>
					<g>
						
							<linearGradient id="SVGID_00000178205846469362717950000008882782041852351148_" gradientUnits="userSpaceOnUse" x1="8931.0811" y1="2038.1565" x2="7654.9775" y2="3148.0435" gradientTransform="matrix(1 0 0 1 -7332.9595 0)">
							<stop  offset="0" style="stop-color:#4042E2"/>
							<stop  offset="1" style="stop-color:#4F52FF"/>
						</linearGradient>
						<path style="fill:url(#SVGID_00000178205846469362717950000008882782041852351148_);" d="M1392.681,2069.843l-61.696,132.872
							c9.976,80.219,53.069,114.904,99.533,128.208c2.898-36.56,12.142-66.097,20.72-86.528
							C1391.869,2183.098,1392.681,2069.843,1392.681,2069.843z"/>
						
							<linearGradient id="SVGID_00000014624646479829431220000014250535165736868278_" gradientUnits="userSpaceOnUse" x1="8763.4785" y1="2294.5474" x2="8920.2441" y2="2294.5474" gradientTransform="matrix(1 0 0 1 -7332.9595 0)">
							<stop  offset="0" style="stop-color:#FF928E"/>
							<stop  offset="1" style="stop-color:#FEB3B1"/>
						</linearGradient>
						<path style="fill:url(#SVGID_00000014624646479829431220000014250535165736868278_);" d="M1451.239,2244.395
							c-8.578,20.431-17.822,49.968-20.72,86.528c123.967,48.098,156.765-45.181,156.765-45.181l-22.911-4.042
							C1512.635,2287.15,1476.495,2270.471,1451.239,2244.395z"/>
					</g>
					
						<linearGradient id="SVGID_00000180365120563463866690000011791233578660117665_" gradientUnits="userSpaceOnUse" x1="8611.0996" y1="1875.6151" x2="8609.3877" y2="2168.3616" gradientTransform="matrix(1 0 0 1 -7332.9595 0)">
						<stop  offset="0" style="stop-color:#FF928E"/>
						<stop  offset="1" style="stop-color:#FEB3B1"/>
					</linearGradient>
					<path style="fill:url(#SVGID_00000180365120563463866690000011791233578660117665_);" d="M1335.839,1905.803l-29.785,109.493
						c-3.346,12.3-16.651,18.906-28.487,14.174c-12.773-5.107-28.979-12.076-42.929-19.608
						c-14.892-8.04-19.551-27.195-10.124-41.251l61.925-92.334L1335.839,1905.803z"/>
				</g>
				
					<linearGradient id="SVGID_00000124864145409785314630000016811792713288583836_" gradientUnits="userSpaceOnUse" x1="8175.3726" y1="2409.3843" x2="8996.2822" y2="2409.3843" gradientTransform="matrix(1 0 0 1 -7332.9595 0)">
					<stop  offset="0" style="stop-color:#09005D"/>
					<stop  offset="1" style="stop-color:#1A0F91"/>
				</linearGradient>
				<path style="fill:url(#SVGID_00000124864145409785314630000016811792713288583836_);" d="M1644.101,2212.471l-763.217,277.781
					c-32.01,11.65-47.311,48.098-33.209,79.106l2.316,5.092c12.477,27.435,44.903,39.468,72.257,26.814l741.074-342.825
					L1644.101,2212.471z"/>
				<g style="opacity:0.26;">
					<ellipse style="fill:#BDD0FB;" cx="1994.906" cy="2045.379" rx="376.76" ry="369.963"/>
				</g>
				
					<linearGradient id="SVGID_00000118365406016381189930000016044561773501921698_" gradientUnits="userSpaceOnUse" x1="8908.6348" y1="2045.3784" x2="9747.0986" y2="2045.3784" gradientTransform="matrix(1 0 0 1 -7332.9595 0)">
					<stop  offset="0" style="stop-color:#09005D"/>
					<stop  offset="1" style="stop-color:#1A0F91"/>
				</linearGradient>
				<path style="fill:url(#SVGID_00000118365406016381189930000016044561773501921698_);" d="M1994.906,1633.709
					c-231.535,0-419.232,184.311-419.232,411.669c0,227.36,187.696,411.67,419.232,411.67c231.536,0,419.233-184.31,419.233-411.67
					C2414.139,1818.02,2226.442,1633.709,1994.906,1633.709z M1994.906,2396.574c-197.523,0-357.649-157.235-357.649-351.197
					c0-193.96,160.125-351.197,357.649-351.197c197.525,0,357.649,157.237,357.649,351.197
					C2352.556,2239.339,2192.431,2396.574,1994.906,2396.574z"/>
				<g>
					<path style="fill:#BDD0FB;" d="M1604.226,2093.985c-1.243-9.716-2.124-19.663-2.614-29.561
						c-0.093-1.85,1.332-3.421,3.182-3.514c1.738-0.12,3.421,1.332,3.514,3.182c0.483,9.727,1.348,19.497,2.568,29.043
						c0.236,1.834-1.062,3.514-2.9,3.75c-0.143,0.019-0.286,0.027-0.429,0.027
						C1605.887,2096.912,1604.443,2095.677,1604.226,2093.985z M1609.833,1981.744c-1.823-0.324-3.035-2.066-2.707-3.889
						c4.75-26.502,12.373-52.583,22.648-77.518l0.008-0.012c60.523-146.798,203.842-241.666,365.125-241.666
						c75.208,0,148.32,20.891,211.434,60.418c1.568,0.985,2.043,3.051,1.062,4.622c-0.985,1.568-3.047,2.039-4.622,1.062
						c-62.044-38.859-133.924-59.399-207.873-59.399c-158.565,0-299.455,93.234-358.931,237.53l-0.008,0.015
						c-10.094,24.486-17.578,50.1-22.247,76.127c-0.29,1.622-1.703,2.761-3.294,2.761
						C1610.231,1981.798,1610.034,1981.783,1609.833,1981.744z"/>
				</g>
				<g>
					
						<linearGradient id="SVGID_00000114760848949327645410000009541862870967712410_" gradientUnits="userSpaceOnUse" x1="8282.4463" y1="4537.8916" x2="8138.3428" y2="4728.5283" gradientTransform="matrix(0.9897 -0.1428 0.1428 0.9897 -7472.0142 -1480.9402)">
						<stop  offset="0" style="stop-color:#FF928E"/>
						<stop  offset="1" style="stop-color:#FEB3B1"/>
					</linearGradient>
					<path style="fill:url(#SVGID_00000114760848949327645410000009541862870967712410_);" d="M1401.002,1822.615
						c0.271,1.88-24.843,124.949-24.843,124.949l-69.965-15.833l6.474-120.18C1312.667,1811.55,1396.46,1791.136,1401.002,1822.615z
						"/>
					
						<linearGradient id="SVGID_00000098217140885344820280000000674007748856155537_" gradientUnits="userSpaceOnUse" x1="8172.3921" y1="4583.8774" x2="8344.5254" y2="4583.8774" gradientTransform="matrix(0.9897 -0.1428 0.1428 0.9897 -7472.0142 -1480.9402)">
						<stop  offset="0" style="stop-color:#09005D"/>
						<stop  offset="1" style="stop-color:#1A0F91"/>
					</linearGradient>
					<path style="fill:url(#SVGID_00000098217140885344820280000000674007748856155537_);" d="M1328.403,1838.331l-8.362,62.998
						c-0.107,0.808-0.106,1.606,0.009,2.413c0.705,4.938,4.379,21.749,21.349,16.942c15.4-4.362,29.518-8.114,39.27-5.131
						c4.379,1.339,7.021,5.774,6.104,10.261c-2.285,11.181-7.899,36.282-16.104,57.345c-1.665,4.274-6.345,6.519-10.75,5.235
						c-13.269-3.869-41.027-12.81-61.673-25.235c-2.798-1.683-4.464-4.726-4.326-7.988c0.671-15.904,2.531-64.249,0.965-77.8
						c-1.469-12.72-17.08-20.34-23.863-23.072c-2.224-0.896-3.967-2.647-4.855-4.875c-3.141-7.871-7.471-26.083,15.481-33.547
						c4.804-1.562,7.335-6.741,5.628-11.495c-3.4-9.464-4.833-23.907,12.923-31.865c18.048-8.088,31.526,1.533,38.804,9.352
						c2.942,3.162,7.665,3.643,11.316,1.336c2.079-1.313,4.757-1.744,7.992,0.271c4.36,2.716,10.133,0.865,12.382-3.752
						c4.322-8.871,13.13-18.373,30.799-15.348c31.352,5.369,34.903,40.112,26.632,60.471c-8.271,20.359-41.932,12.605-58.818,2.342
						c-12.839-7.804-29.494,0.375-36.739,4.745C1330.275,1833.317,1328.756,1835.674,1328.403,1838.331z"/>
					
						<linearGradient id="SVGID_00000022556841808524749680000009809663529001266575_" gradientUnits="userSpaceOnUse" x1="8071.3906" y1="4688.8613" x2="8186.9736" y2="4570.2764" gradientTransform="matrix(0.9897 -0.1428 0.1428 0.9897 -7472.0142 -1480.9402)">
						<stop  offset="0" style="stop-color:#FF928E"/>
						<stop  offset="1" style="stop-color:#FEB3B1"/>
					</linearGradient>
					<path style="fill:url(#SVGID_00000022556841808524749680000009809663529001266575_);" d="M1292.071,1900.338
						c0,0,12.889-36.093-0.353-44.933c-13.243-8.839-32.855-4.25-28.537,21.896
						C1268.552,1909.825,1292.071,1900.338,1292.071,1900.338z"/>
				</g>
				
					<linearGradient id="SVGID_00000165938238546885461330000018043800974874418611_" gradientUnits="userSpaceOnUse" x1="8468.9316" y1="2366.6448" x2="8269.877" y2="2542.9124" gradientTransform="matrix(1 0 0 1 -7332.9595 0)">
					<stop  offset="0" style="stop-color:#FF928E"/>
					<stop  offset="1" style="stop-color:#FEB3B1"/>
				</linearGradient>
				<path style="fill:url(#SVGID_00000165938238546885461330000018043800974874418611_);" d="M1019.219,2415.264l72.151-5.88
					l31.247,28.804c0,0-7.393,10.219-30.504,4.345c-23.111-5.874-54.77-7.315-54.77-7.315s-31.905,14.384-32.294-12.529
					L1019.219,2415.264z"/>
				
					<linearGradient id="SVGID_00000066504045475520416490000002836189385081626792_" gradientUnits="userSpaceOnUse" x1="8903.5889" y1="2276.1365" x2="8959.7275" y2="2276.1365" gradientTransform="matrix(1 0 0 1 -7332.9595 0)">
					<stop  offset="0" style="stop-color:#FF928E"/>
					<stop  offset="1" style="stop-color:#FEB3B1"/>
				</linearGradient>
				<path style="fill:url(#SVGID_00000066504045475520416490000002836189385081626792_);" d="M1578.094,2302.808
					c6.24,4.875,27.618-5.302,40.7-12.338c6.375-3.429,9.463-10.884,7.275-17.785c-3.148-9.927-8.394-22.742-14.857-24.358
					C1600.488,2245.646,1552.381,2282.72,1578.094,2302.808z"/>
				<path style="fill:#BDD0FB;" d="M895.941,2591.123c1.39,0,2.688-0.869,3.167-2.255c0.606-1.753-0.32-3.661-2.07-4.263
					c-21.312-7.368-32.468-19.25-33.163-35.322c-0.707-16.308,9.615-31.472,25.684-37.736l91.639-35.731
					c1.726-0.672,2.579-2.618,1.908-4.34c-0.668-1.726-2.618-2.576-4.34-1.908l-91.639,35.731
					c-18.744,7.31-30.777,25.1-29.947,44.273c0.568,13.126,7.561,30.962,37.666,41.365
					C895.207,2591.065,895.578,2591.123,895.941,2591.123z"/>
				<path style="fill:#BDD0FB;" d="M1008.217,2465.03c0.405,0,0.819-0.073,1.216-0.228l11.878-4.63
					c1.726-0.672,2.58-2.618,1.908-4.34c-0.672-1.726-2.622-2.576-4.34-1.908l-11.878,4.63c-1.726,0.672-2.58,2.618-1.908,4.34
					C1005.61,2464.219,1006.877,2465.03,1008.217,2465.03z"/>
			</g>
		</g>
		<g>
			
				<linearGradient id="SVGID_00000139256634828457904350000004931646110296960691_" gradientUnits="userSpaceOnUse" x1="846.4324" y1="636.4612" x2="2094.3884" y2="1577.0377">
				<stop  offset="0" style="stop-color:#FE7062"/>
				<stop  offset="1" style="stop-color:#FF928E"/>
			</linearGradient>
			<path style="fill:url(#SVGID_00000139256634828457904350000004931646110296960691_);" d="M1529.225,1221.462l175.636,11.966
				c8.348,0.722,12.912-9.503,6.8-15.235l-168.425-124.72L1529.225,1221.462z"/>
			
				<linearGradient id="SVGID_00000041286828978867074060000004634221602760876160_" gradientUnits="userSpaceOnUse" x1="771.6141" y1="735.7299" x2="2019.5699" y2="1676.3063">
				<stop  offset="0" style="stop-color:#FE7062"/>
				<stop  offset="1" style="stop-color:#FF928E"/>
			</linearGradient>
			<path style="fill:url(#SVGID_00000041286828978867074060000004634221602760876160_);" d="M525.845,659.365l989.157-6.051
				c22.648-0.138,41.04,16.642,40.868,37.287l-4.163,498.026c-0.173,20.762-19.048,37.331-41.815,36.707l-978.447-26.805
				c-21.734-0.595-39.095-16.695-39.374-36.514l-6.547-465.17C485.236,676.32,503.328,659.503,525.845,659.365z"/>
			<path style="opacity:0.31;fill:#FFFFFF;" d="M556.483,689.829l926.246-5.287c21.207-0.121,38.43,14.54,38.269,32.578
				l-3.898,435.132c-0.162,18.14,15.358,43.66-5.961,43.115l-949.411-34.463c-20.352-0.52-36.608-14.587-36.869-31.903
				l-6.131-406.425C518.456,704.643,535.398,689.949,556.483,689.829z"/>
			<path style="opacity:0.59;fill:#FFFFFF;" d="M1511.138,1195.365l-978.708-26.809c-4.13-0.11-7.406-3.156-7.466-6.926
				l-6.546-465.173c-0.033-1.892,0.729-3.625,2.202-4.998c1.468-1.373,3.352-2.102,5.451-2.112l989.155-6.052
				c2.131,0,4.026,0.714,5.505,2.062c1.495,1.368,2.268,3.106,2.246,5.028l-4.163,498.004
				C1518.791,1192.235,1515.345,1195.365,1511.138,1195.365z M532.835,1161.391l978.424,26.799l3.84-497.87l-988.979,6.207
				L532.835,1161.391z"/>
			<path style="opacity:0.77;fill:#FFFFFF;" d="M582.903,802.385c0,17.62,10.262,31.904,22.92,31.904h841.316
				c12.658,0,22.92-14.284,22.92-31.904c0-17.62-10.262-31.904-22.92-31.904H605.823
				C593.165,770.482,582.903,784.765,582.903,802.385z"/>
			<path style="opacity:0.77;fill:#FFFFFF;" d="M628.984,888.697h788.774c17.162,0,31.074,8.567,31.074,19.134
				c0,10.567-13.912,19.134-31.074,19.134H628.984c-17.162,0-31.074-8.567-31.074-19.134S611.822,888.697,628.984,888.697z"/>
			<path style="opacity:0.77;fill:#FFFFFF;" d="M597.91,994.984c0,10.548,13.887,19.099,31.016,19.099h788.889
				c17.13,0,31.016-8.551,31.016-19.099v-11.807c0-10.729-14.35-19.354-31.77-19.093l-788.889,11.806
				C611.341,976.143,597.91,984.617,597.91,994.984z"/>
			<path style="opacity:0.77;fill:#FFFFFF;" d="M632.094,1055.205h788.774c17.162,0,31.074,8.567,31.074,19.134
				s-13.912,19.134-31.074,19.134H632.094c-17.162,0-31.074-8.567-31.074-19.134S614.933,1055.205,632.094,1055.205z"/>
		</g>
	</g>
</g>
</svg>
